# xmcd CD database file
#
# Track frame offsets:
#	150
#	11972
#	22461
#	30643
#	42278
#	52012
#	59578
#	71949
#	80252
#	92278
#	102337
#	113650
#	121209
#	130038
#
# Disc length: 1834 seconds
#
# Revision: 2
# Processed by: cddbd v1.5.2PL0 Copyright (c) Steve Scherf et al.
# Submitted via: CDex 1.79
#
DISCID=c007280e
DTITLE=Dale Watson - The Sun Sessions
DYEAR=2011
DGENRE=Country
TTITLE0=Down, Down, Down, Down, Down
TTITLE1=Johnny At The Door
TTITLE2=Drive, Drive, Drive
TTITLE3=Elbow Grease, Spackle And Pine-Sol
TTITLE4=Gothenburg Train
TTITLE5=The Hand Of Jesus
TTITLE6=My Baby Makes Me Gravy
TTITLE7=Her Love
TTITLE8=Ponder Why, I Ponder Why
TTITLE9=George O'Dwyer
TTITLE10=I've Done That Before
TTITLE11=Big Daddy
TTITLE12=If  You Know What's Good For You
TTITLE13=Lord, I'm Free
EXTD=YEAR: 2011
EXTT0=
EXTT1=
EXTT2=
EXTT3=
EXTT4=
EXTT5=
EXTT6=
EXTT7=
EXTT8=
EXTT9=
EXTT10=
EXTT11=
EXTT12=
EXTT13=
PLAYORDER=
